<svg width="152" height="152" viewBox="0 0 152 152" fill="none" xmlns="http://www.w3.org/2000/svg">
<g clip-path="url(#clip0_26_2617)">
<path d="M146.651 75.997C148.998 73.2634 150.643 69.9983 151.443 66.485C152.243 62.9717 152.174 59.3163 151.241 55.8359C150.308 52.3554 148.54 49.1551 146.091 46.5126C143.641 43.87 140.584 41.865 137.184 40.6715C137.851 37.1303 137.643 33.48 136.579 30.0373C135.515 26.5946 133.627 23.4636 131.078 20.9158C128.53 18.368 125.399 16.4804 121.956 15.4168C118.513 14.3532 114.863 14.1457 111.322 14.8123C110.129 11.4117 108.125 8.3536 105.482 5.90352C102.84 3.45343 99.6388 1.68541 96.1579 0.752947C92.677 -0.179515 89.0211 -0.248228 85.5076 0.552772C81.9941 1.35377 78.7292 3.00028 75.9964 5.34933C73.2628 3.00189 69.9977 1.35687 66.4844 0.556979C62.9711 -0.242915 59.3157 -0.173524 55.8353 0.759129C52.3549 1.69178 49.1546 3.45953 46.512 5.90902C43.8695 8.35851 41.8645 11.4158 40.671 14.8156C37.1299 14.15 33.48 14.3585 30.0378 15.4228C26.5956 16.4871 23.465 18.3752 20.9176 20.9232C18.3702 23.4713 16.483 26.6023 15.4195 30.0448C14.3561 33.4873 14.1486 37.1373 14.815 40.6781C11.4152 41.8716 8.35794 43.8766 5.90845 46.5192C3.45896 49.1617 1.6912 52.362 0.758546 55.8424C-0.174108 59.3229 -0.243509 62.9783 0.556385 66.4916C1.35628 70.0049 3.00133 73.27 5.34877 76.0036C3.00061 78.7371 1.35506 82.0024 0.554938 85.5161C-0.245184 89.0298 -0.175723 92.6856 0.757339 96.1663C1.6904 99.6471 3.45884 102.847 5.90917 105.49C8.35951 108.132 11.4177 110.137 14.8183 111.329C14.1513 114.87 14.3586 118.52 15.4221 121.963C16.4857 125.406 18.3735 128.537 20.9215 131.084C23.4695 133.632 26.6008 135.519 30.0436 136.582C33.4864 137.646 37.1367 137.852 40.6776 137.185C41.8711 140.585 43.8761 143.642 46.5186 146.092C49.1612 148.541 52.3615 150.309 55.8419 151.241C59.3223 152.174 62.9777 152.243 66.491 151.444C70.0043 150.644 73.2694 148.999 76.003 146.651C78.7366 148.999 82.0019 150.645 85.5156 151.445C89.0292 152.245 92.685 152.176 96.1658 151.243C99.6465 150.31 102.847 148.541 105.489 146.091C108.132 143.64 110.136 140.582 111.329 137.182C114.87 137.848 118.52 137.641 121.963 136.578C125.405 135.514 128.536 133.626 131.084 131.078C133.632 128.53 135.52 125.399 136.584 121.957C137.647 118.514 137.855 114.864 137.188 111.322C140.588 110.129 143.645 108.124 146.095 105.482C148.545 102.839 150.312 99.6385 151.245 96.1578C152.177 92.6772 152.246 89.0216 151.445 85.5083C150.645 81.9949 148.999 78.7301 146.651 75.997Z" fill="url(#paint0_linear_26_2617)"/>
<path d="M62.3576 105.008L41.2381 83.9018C40.4365 83.099 39.9863 82.0109 39.9863 80.8765C39.9863 79.7421 40.4365 78.654 41.2381 77.8512L43.8039 75.2821C44.6067 74.4805 45.6948 74.0304 46.8292 74.0304C47.9636 74.0304 49.0517 74.4805 49.8545 75.2821L65.2067 90.6243L101.362 52.2028C102.14 51.3773 103.214 50.8942 104.348 50.8597C105.481 50.8251 106.583 51.2418 107.41 52.0183L110.045 54.5051C110.871 55.2832 111.355 56.3576 111.389 57.4922C111.424 58.6268 111.007 59.7287 110.229 60.5557L68.5103 104.913C68.1175 105.331 67.6446 105.667 67.1195 105.899C66.5945 106.131 66.0282 106.255 65.4542 106.264C64.8802 106.273 64.3103 106.166 63.7783 105.951C63.2463 105.735 62.7632 105.414 62.3576 105.008Z" fill="white"/>
</g>
<defs>
<linearGradient id="paint0_linear_26_2617" x1="45" y1="19.3537" x2="117.5" y2="140.354" gradientUnits="userSpaceOnUse">
<stop stop-color="#00D5BE"/>
<stop offset="1" stop-color="#0B4F4A" stop-opacity="0.5"/>
</linearGradient>
<clipPath id="clip0_26_2617">
<rect width="152" height="152" fill="white"/>
</clipPath>
</defs>
</svg>
